<svg width="36" height="34" viewBox="0 0 36 34" fill="none" xmlns="http://www.w3.org/2000/svg">
<path d="M35.768 11.5471C35.5921 11.3807 35.3462 11.3018 35.1017 11.3333H25.5515V7.27041C25.5515 3.25505 22.1706 0 18.0001 0C13.8296 0 10.4487 3.25505 10.4487 7.27041V11.3333H0.898291C0.631745 11.3333 0.365284 11.3333 0.231969 11.5471C0.0529108 11.7128 -0.0301563 11.9527 0.00988936 12.1887L3.34142 29.7233C3.80683 32.1693 6.0005 33.9592 8.58298 34H27.417C30.0069 33.9387 32.196 32.1347 32.6586 29.6805L35.9901 12.1887C36.0302 11.9527 35.9471 11.7128 35.768 11.5471ZM12.2254 7.27041C12.2254 4.19987 14.8108 1.7107 18 1.7107C21.1892 1.7107 23.7746 4.19987 23.7746 7.27041V11.3333H12.2254V7.27041ZM30.8818 29.4666C30.5826 31.0875 29.1268 32.2735 27.417 32.2893H8.58298C6.87317 32.2735 5.41742 31.0876 5.11822 29.4666L1.96439 13.044H34.0356L30.8818 29.4666Z" fill="#1D1D1D"/>
<path d="M24.6631 21.3836C25.1537 21.3836 25.5515 21.0007 25.5515 20.5283V17.9622C25.5515 17.4898 25.1537 17.1069 24.6631 17.1069C24.1724 17.1069 23.7747 17.4898 23.7747 17.9622V20.5283C23.7746 21.0007 24.1724 21.3836 24.6631 21.3836Z" fill="#1D1D1D"/>
<path d="M11.337 21.3836C11.8277 21.3836 12.2254 21.0007 12.2254 20.5283V17.9622C12.2254 17.4898 11.8277 17.1069 11.337 17.1069C10.8464 17.1069 10.4486 17.4898 10.4486 17.9622V20.5283C10.4486 21.0007 10.8464 21.3836 11.337 21.3836Z" fill="#1D1D1D"/>
</svg>
